<svg xmlns="http://www.w3.org/2000/svg" xmlns:xlink="http://www.w3.org/1999/xlink" width="1024" zoomAndPan="magnify" viewBox="0 0 768 767.999994" height="1024" preserveAspectRatio="xMidYMid meet" version="1.0"><defs><clipPath id="f26b803ab7"><path d="M 677.394531 289.027344 L 765.574219 289.027344 L 765.574219 359.597656 L 677.394531 359.597656 Z M 677.394531 289.027344 " clip-rule="nonzero"/></clipPath></defs><path fill="#001639" d="M 94.066406 478.40625 C 83.503906 478.40625 73.773438 476.664062 64.890625 473.21875 C 55.984375 469.769531 48.265625 464.847656 41.707031 458.449219 C 35.199219 452.003906 30.164062 444.308594 26.582031 435.359375 C 23.003906 426.410156 21.214844 416.429688 21.214844 405.375 C 21.214844 394.523438 23.003906 384.613281 26.582031 375.660156 C 30.164062 366.710938 35.199219 359.015625 41.707031 352.570312 C 48.265625 346.125 55.984375 341.183594 64.890625 337.714844 C 73.773438 334.269531 83.503906 332.523438 94.066406 332.523438 C 105.207031 332.523438 115.324219 334.46875 124.40625 338.339844 C 133.535156 342.167969 141.234375 347.738281 147.496094 355.078125 C 153.808594 362.371094 158.238281 371.230469 160.742188 381.660156 L 130.851562 385.597656 C 128.164062 376.644531 123.511719 369.890625 116.886719 365.28125 C 110.308594 360.691406 102.613281 358.386719 93.796875 358.386719 C 85.964844 358.386719 79.03125 360.335938 72.945312 364.207031 C 66.859375 368.097656 62.046875 373.558594 58.535156 380.585938 C 55.066406 387.632812 53.34375 395.890625 53.34375 405.375 C 53.34375 414.816406 55.066406 423.074219 58.535156 430.167969 C 62.046875 437.28125 66.859375 442.765625 72.945312 446.636719 C 79.03125 450.460938 85.964844 452.363281 93.796875 452.363281 C 102.613281 452.363281 110.308594 450.125 116.886719 445.652344 C 123.511719 441.132812 128.164062 434.375 130.851562 425.425781 L 160.742188 429.183594 C 158.238281 439.632812 153.808594 448.515625 147.496094 455.855469 C 141.164062 463.148438 133.402344 468.71875 124.226562 472.589844 C 115.097656 476.460938 105.03125 478.40625 94.066406 478.40625 Z M 94.066406 478.40625 " fill-opacity="1" fill-rule="nonzero"/><path fill="#001639" d="M 219.886719 478.585938 C 214.203125 478.585938 208.746094 477.824219 203.507812 476.347656 C 198.316406 474.917969 193.6875 472.726562 189.636719 469.726562 C 185.5625 466.683594 182.386719 462.722656 180.058594 457.824219 C 177.734375 452.945312 176.570312 447.082031 176.570312 440.28125 C 176.570312 432.71875 177.957031 426.363281 180.777344 421.21875 C 183.640625 416.09375 187.53125 411.886719 192.5 408.597656 C 197.445312 405.265625 203.152344 402.578125 209.59375 400.542969 C 216.082031 398.460938 223.019531 396.785156 230.359375 395.53125 L 251.660156 391.59375 C 256.3125 390.652344 259.625 389.132812 261.59375 387.027344 C 263.609375 384.949219 264.636719 382.238281 264.636719 378.882812 C 264.636719 373.109375 263.292969 368.546875 260.609375 365.191406 C 257.96875 361.789062 254.546875 359.371094 250.316406 357.941406 C 246.132812 356.507812 241.726562 355.792969 237.070312 355.792969 C 232.058594 355.792969 227.40625 356.597656 223.109375 358.210938 C 218.8125 359.820312 215.277344 362.460938 212.546875 366.085938 C 209.796875 369.664062 208.027344 374.476562 207.265625 380.496094 L 178.359375 375.214844 C 180.796875 360.671875 187.152344 349.953125 197.421875 343.082031 C 207.738281 336.171875 221.609375 332.703125 239.039062 332.703125 C 246.019531 332.703125 252.84375 333.460938 259.535156 334.9375 C 266.269531 336.4375 272.355469 339.035156 277.792969 342.726562 C 283.207031 346.371094 287.503906 351.40625 290.679688 357.851562 C 293.902344 364.296875 295.515625 372.484375 295.515625 382.375 L 295.515625 436.878906 C 295.515625 443.503906 296.519531 448.023438 298.558594 450.394531 C 300.570312 452.789062 304.015625 453.972656 308.851562 453.972656 L 311.085938 453.972656 L 311.085938 475.902344 L 295.78125 475.902344 C 287.90625 475.902344 281.574219 474.449219 276.808594 471.515625 C 272.019531 468.609375 268.867188 463.863281 267.320312 457.285156 L 265.800781 457.285156 C 262.152344 462.433594 257.835938 466.570312 252.824219 469.726562 C 247.8125 472.835938 242.464844 475.074219 236.800781 476.4375 C 231.1875 477.871094 225.546875 478.585938 219.886719 478.585938 Z M 227.40625 453.257812 C 234.789062 453.257812 241.457031 451.535156 247.363281 448.066406 C 253.269531 444.621094 257.945312 439.742188 261.414062 433.480469 C 264.929688 427.167969 266.695312 419.742188 266.695312 411.195312 L 230.804688 419.160156 C 223.398438 420.546875 217.695312 422.628906 213.710938 425.425781 C 209.707031 428.242188 207.714844 432.292969 207.714844 437.597656 C 207.714844 443.101562 209.617188 447.082031 213.441406 449.589844 C 217.246094 452.050781 221.902344 453.257812 227.40625 453.257812 Z M 227.40625 453.257812 " fill-opacity="1" fill-rule="nonzero"/><path fill="#001639" d="M 367.636719 357.582031 C 370.074219 353.109375 373.542969 349.082031 378.019531 345.5 C 382.492188 341.921875 387.640625 339.054688 393.5 336.910156 C 399.410156 334.761719 405.671875 333.6875 412.296875 333.6875 L 412.296875 363.042969 C 402.742188 363.042969 394.6875 364.363281 388.132812 366.980469 C 381.554688 369.621094 376.609375 373.917969 373.273438 379.867188 C 369.917969 385.84375 368.261719 393.917969 368.261719 404.121094 L 368.261719 475.902344 L 335.953125 475.902344 L 335.953125 335.207031 L 366.652344 335.207031 Z M 367.636719 357.582031 " fill-opacity="1" fill-rule="nonzero"/><path fill="#001639" d="M 559.488281 403.136719 L 559.132812 411.28125 L 452.089844 411.28125 C 452.558594 420.589844 454.683594 428.332031 458.445312 434.464844 C 462.246094 440.550781 467.148438 445.113281 473.121094 448.15625 C 479.140625 451.199219 485.695312 452.722656 492.8125 452.722656 C 500.621094 452.722656 507.578125 450.820312 513.664062 446.992188 C 519.796875 443.121094 524.449219 437.664062 527.628906 430.613281 L 556.984375 435.625 C 553.695312 444.710938 548.929688 452.453125 542.664062 458.898438 C 536.441406 465.296875 529.105469 470.175781 520.644531 473.574219 C 512.234375 476.976562 503.035156 478.675781 493.082031 478.675781 C 478.691406 478.675781 466.050781 475.789062 455.132812 469.996094 C 444.257812 464.222656 435.753906 455.898438 429.625 445.023438 C 423.539062 434.105469 420.496094 420.949219 420.496094 405.554688 C 420.496094 393.988281 422.242188 383.695312 425.777344 374.675781 C 429.355469 365.617188 434.324219 357.941406 440.722656 351.675781 C 447.097656 345.367188 454.683594 340.578125 463.457031 337.355469 C 472.226562 334.089844 481.757812 332.433594 492.09375 332.433594 C 501.804688 332.433594 510.757812 333.867188 518.945312 336.730469 C 527.179688 339.546875 534.273438 343.890625 540.246094 349.796875 C 546.265625 355.660156 550.988281 363.019531 554.386719 371.902344 C 557.789062 380.742188 559.488281 391.144531 559.488281 403.136719 Z M 492.273438 356.328125 C 482.363281 356.328125 473.972656 358.8125 467.125 363.757812 C 460.257812 368.726562 455.714844 376.535156 453.519531 387.207031 L 527.179688 387.207031 C 525.972656 376.78125 522.191406 369.015625 515.8125 363.9375 C 509.414062 358.878906 501.582031 356.328125 492.273438 356.328125 Z M 492.273438 356.328125 " fill-opacity="1" fill-rule="nonzero"/><path fill="#001639" d="M 636.074219 475.902344 C 623.542969 475.902344 613.699219 472.367188 606.539062 465.25 C 599.378906 458.089844 595.796875 447.957031 595.796875 434.820312 L 595.796875 360.355469 L 567.695312 360.355469 L 567.695312 335.207031 L 577.363281 335.207031 C 584.8125 335.207031 590.273438 333.484375 593.738281 330.015625 C 597.253906 326.503906 599.019531 320.171875 599.019531 311.042969 L 599.019531 289.203125 L 628.464844 289.203125 L 628.464844 335.207031 L 659.074219 335.207031 L 659.074219 360.355469 L 628.464844 360.355469 L 628.464844 431.421875 C 628.464844 437.929688 630.078125 442.832031 633.300781 446.097656 C 636.566406 449.386719 640.929688 451.019531 646.367188 451.019531 L 659.074219 451.019531 L 659.074219 475.902344 Z M 636.074219 475.902344 " fill-opacity="1" fill-rule="nonzero"/><g clip-path="url(#f26b803ab7)"><path fill="#d6002e" d="M 677.371094 289.027344 L 765.574219 289.027344 L 765.574219 359.597656 L 677.371094 359.597656 Z M 677.371094 289.027344 " fill-opacity="1" fill-rule="nonzero"/></g><path fill="#ffffff" d="M 739.464844 332.472656 L 734.183594 332.472656 C 733.691406 332.472656 733.289062 332.359375 732.933594 332.113281 C 732.617188 331.890625 732.394531 331.578125 732.214844 331.21875 L 723.085938 313.5 C 722.371094 312.203125 721.832031 310.882812 721.476562 309.5625 C 721.230469 310.230469 720.984375 310.882812 720.761719 311.53125 C 720.515625 312.132812 720.222656 312.761719 719.863281 313.410156 L 711.183594 331.128906 C 711.003906 331.554688 710.734375 331.890625 710.378906 332.113281 C 710.019531 332.359375 709.574219 332.472656 709.035156 332.472656 L 703.488281 332.472656 L 719.058594 303.027344 L 723.714844 303.027344 Z M 739.464844 332.472656 " fill-opacity="1" fill-rule="nonzero"/><path fill="#001639" d="M 160.546875 512.371094 L 149.269531 512.371094 L 149.269531 521.320312 L 159.203125 521.320312 L 159.203125 524.542969 L 149.269531 524.542969 L 149.269531 533.492188 L 160.546875 533.492188 L 160.546875 536.714844 L 145.6875 536.714844 L 145.6875 509.148438 L 160.546875 509.148438 Z M 160.546875 512.371094 " fill-opacity="1" fill-rule="nonzero"/><path fill="#001639" d="M 200.148438 509.148438 L 203.636719 509.148438 L 203.636719 536.714844 L 199.96875 536.714844 L 185.109375 514.429688 L 185.109375 536.714844 L 181.621094 536.714844 L 181.621094 509.148438 L 185.289062 509.148438 L 200.148438 531.34375 Z M 200.148438 509.148438 " fill-opacity="1" fill-rule="nonzero"/><path fill="#001639" d="M 241.125 509.148438 L 241.125 512.371094 L 234.054688 512.371094 L 234.054688 536.714844 L 230.5625 536.714844 L 230.5625 512.371094 L 223.492188 512.371094 L 223.492188 509.148438 Z M 241.125 509.148438 " fill-opacity="1" fill-rule="nonzero"/><path fill="#001639" d="M 275.839844 512.371094 L 264.5625 512.371094 L 264.5625 521.320312 L 274.496094 521.320312 L 274.496094 524.542969 L 264.5625 524.542969 L 264.5625 533.492188 L 275.839844 533.492188 L 275.839844 536.714844 L 260.980469 536.714844 L 260.980469 509.148438 L 275.839844 509.148438 Z M 275.839844 512.371094 " fill-opacity="1" fill-rule="nonzero"/><path fill="#001639" d="M 315.976562 536.714844 L 311.859375 536.714844 L 305.683594 525.972656 L 300.492188 525.972656 L 300.492188 536.714844 L 296.914062 536.714844 L 296.914062 509.148438 L 305.414062 509.148438 C 308.457031 509.148438 310.785156 509.683594 312.394531 510.757812 C 314.363281 512.078125 315.347656 514.203125 315.347656 517.113281 C 315.347656 518.613281 315.101562 519.957031 314.632812 521.140625 C 314.140625 522.28125 313.46875 523.199219 312.574219 523.914062 C 312.082031 524.339844 311.546875 524.699219 310.964844 524.988281 C 310.425781 525.234375 309.800781 525.4375 309.085938 525.617188 Z M 300.492188 512.191406 L 300.492188 522.929688 L 304.96875 522.929688 C 306.21875 522.929688 307.292969 522.839844 308.1875 522.664062 C 309.085938 522.4375 309.800781 522.011719 310.335938 521.410156 C 310.808594 521.007812 311.164062 520.46875 311.410156 519.796875 C 311.636719 519.082031 311.769531 518.253906 311.769531 517.292969 C 311.769531 516.351562 311.613281 515.570312 311.320312 514.964844 C 311.074219 514.316406 310.738281 513.78125 310.335938 513.355469 C 309.734375 512.882812 308.996094 512.59375 308.101562 512.460938 C 307.203125 512.28125 306.152344 512.191406 304.96875 512.191406 Z M 300.492188 512.191406 " fill-opacity="1" fill-rule="nonzero"/><path fill="#001639" d="M 352.339844 510.757812 C 354.308594 512.078125 355.292969 514.203125 355.292969 517.113281 C 355.292969 518.613281 355.046875 519.957031 354.578125 521.140625 C 354.085938 522.28125 353.414062 523.199219 352.519531 523.914062 C 350.910156 525.300781 348.515625 525.972656 345.359375 525.972656 L 340.4375 525.972656 L 340.4375 536.714844 L 336.855469 536.714844 L 336.855469 509.148438 L 345.359375 509.148438 C 348.402344 509.148438 350.730469 509.683594 352.339844 510.757812 Z M 350.28125 521.410156 C 350.753906 521.007812 351.109375 520.46875 351.355469 519.796875 C 351.578125 519.082031 351.714844 518.253906 351.714844 517.292969 C 351.714844 516.351562 351.558594 515.570312 351.265625 514.964844 C 351.019531 514.316406 350.683594 513.78125 350.28125 513.355469 C 349.679688 512.882812 348.941406 512.59375 348.042969 512.460938 C 347.148438 512.28125 346.097656 512.191406 344.914062 512.191406 L 340.4375 512.191406 L 340.4375 522.929688 L 344.914062 522.929688 C 346.164062 522.929688 347.238281 522.839844 348.132812 522.664062 C 349.027344 522.4375 349.746094 522.011719 350.28125 521.410156 Z M 350.28125 521.410156 " fill-opacity="1" fill-rule="nonzero"/><path fill="#001639" d="M 394.964844 536.714844 L 390.847656 536.714844 L 384.671875 525.972656 L 379.480469 525.972656 L 379.480469 536.714844 L 375.902344 536.714844 L 375.902344 509.148438 L 384.402344 509.148438 C 387.445312 509.148438 389.773438 509.683594 391.386719 510.757812 C 393.355469 512.078125 394.339844 514.203125 394.339844 517.113281 C 394.339844 518.613281 394.09375 519.957031 393.621094 521.140625 C 393.128906 522.28125 392.457031 523.199219 391.5625 523.914062 C 391.070312 524.339844 390.535156 524.699219 389.953125 524.988281 C 389.414062 525.234375 388.789062 525.4375 388.074219 525.617188 Z M 379.480469 512.191406 L 379.480469 522.929688 L 383.957031 522.929688 C 385.210938 522.929688 386.285156 522.839844 387.179688 522.664062 C 388.074219 522.4375 388.789062 522.011719 389.328125 521.410156 C 389.796875 521.007812 390.152344 520.46875 390.402344 519.796875 C 390.625 519.082031 390.757812 518.253906 390.757812 517.292969 C 390.757812 516.351562 390.601562 515.570312 390.3125 514.964844 C 390.066406 514.316406 389.730469 513.78125 389.328125 513.355469 C 388.722656 512.882812 387.984375 512.59375 387.089844 512.460938 C 386.195312 512.28125 385.140625 512.191406 383.957031 512.191406 Z M 379.480469 512.191406 " fill-opacity="1" fill-rule="nonzero"/><path fill="#001639" d="M 415.847656 509.148438 L 419.425781 509.148438 L 419.425781 536.714844 L 415.847656 536.714844 Z M 415.847656 509.148438 " fill-opacity="1" fill-rule="nonzero"/><path fill="#001639" d="M 451.03125 537.070312 C 449.105469 537.070312 447.382812 536.804688 445.839844 536.265625 C 444.339844 535.683594 443.085938 534.835938 442.082031 533.761719 C 441.117188 532.640625 440.492188 531.320312 440.203125 529.824219 L 443.601562 528.925781 C 443.894531 530.070312 444.363281 531.03125 445.035156 531.792969 C 445.75 532.507812 446.601562 533.089844 447.628906 533.492188 C 448.703125 533.851562 449.824219 534.027344 451.03125 534.027344 C 451.859375 534.027344 452.640625 533.984375 453.359375 533.851562 C 454.074219 533.671875 454.699219 533.402344 455.238281 533.042969 C 455.820312 532.6875 456.3125 532.214844 456.667969 531.613281 C 457.027344 530.964844 457.160156 530.226562 457.117188 529.375 C 457.117188 528.480469 456.894531 527.765625 456.492188 527.226562 C 456.066406 526.644531 455.503906 526.152344 454.789062 525.796875 C 454.074219 525.390625 453.269531 525.054688 452.375 524.808594 C 451.476562 524.519531 450.539062 524.230469 449.597656 523.914062 C 448.75 523.691406 447.921875 523.445312 447.09375 523.199219 C 446.242188 522.910156 445.4375 522.574219 444.675781 522.214844 C 443.960938 521.855469 443.332031 521.453125 442.796875 520.960938 C 442.261719 520.425781 441.8125 519.796875 441.453125 519.082031 C 441.140625 518.320312 441.007812 517.425781 441.007812 516.398438 C 441.007812 515.101562 441.230469 513.980469 441.722656 513.085938 C 442.261719 512.144531 442.929688 511.339844 443.78125 510.667969 C 444.609375 510.019531 445.570312 509.550781 446.644531 509.238281 C 447.765625 508.945312 448.925781 508.789062 450.136719 508.789062 C 451.390625 508.789062 452.550781 508.945312 453.625 509.238281 C 454.746094 509.484375 455.773438 509.863281 456.667969 510.402344 C 457.5625 510.9375 458.300781 511.632812 458.90625 512.460938 C 459.554688 513.308594 460.027344 514.316406 460.339844 515.503906 L 457.027344 516.308594 C 456.78125 515.300781 456.3125 514.472656 455.59375 513.800781 C 454.925781 513.085938 454.164062 512.59375 453.269531 512.28125 C 452.375 511.988281 451.390625 511.832031 450.316406 511.832031 C 449.597656 511.832031 448.882812 511.921875 448.167969 512.101562 C 447.496094 512.234375 446.867188 512.460938 446.289062 512.816406 C 445.75 513.175781 445.324219 513.667969 445.035156 514.25 C 444.722656 514.855469 444.585938 515.546875 444.585938 516.308594 C 444.585938 517.089844 444.765625 517.738281 445.125 518.277344 C 445.480469 518.769531 445.953125 519.171875 446.554688 519.53125 C 447.203125 519.886719 447.921875 520.222656 448.703125 520.515625 C 449.464844 520.761719 450.335938 521.007812 451.300781 521.230469 C 452.128906 521.410156 453 521.65625 453.894531 521.945312 C 454.835938 522.257812 455.707031 522.574219 456.492188 522.929688 C 457.316406 523.289062 458.035156 523.78125 458.636719 524.363281 C 459.289062 524.898438 459.800781 525.59375 460.160156 526.421875 C 460.519531 527.203125 460.695312 528.167969 460.695312 529.285156 C 460.695312 530.605469 460.449219 531.769531 459.980469 532.777344 C 459.488281 533.738281 458.816406 534.542969 457.921875 535.191406 C 457.027344 535.796875 455.976562 536.265625 454.789062 536.625 C 453.582031 536.914062 452.328125 537.070312 451.03125 537.070312 Z M 451.03125 537.070312 " fill-opacity="1" fill-rule="nonzero"/><path fill="#001639" d="M 496.613281 512.371094 L 485.335938 512.371094 L 485.335938 521.320312 L 495.273438 521.320312 L 495.273438 524.542969 L 485.335938 524.542969 L 485.335938 533.492188 L 496.613281 533.492188 L 496.613281 536.714844 L 481.757812 536.714844 L 481.757812 509.148438 L 496.613281 509.148438 Z M 496.613281 512.371094 " fill-opacity="1" fill-rule="nonzero"/><path fill="#001639" d="M 526.28125 537.070312 C 524.355469 537.070312 522.632812 536.804688 521.089844 536.265625 C 519.589844 535.683594 518.335938 534.835938 517.332031 533.761719 C 516.367188 532.640625 515.742188 531.320312 515.449219 529.824219 L 518.851562 528.925781 C 519.144531 530.070312 519.613281 531.03125 520.285156 531.792969 C 521 532.507812 521.851562 533.089844 522.878906 533.492188 C 523.953125 533.851562 525.070312 534.027344 526.28125 534.027344 C 527.109375 534.027344 527.890625 533.984375 528.609375 533.851562 C 529.324219 533.671875 529.949219 533.402344 530.488281 533.042969 C 531.070312 532.6875 531.5625 532.214844 531.917969 531.613281 C 532.277344 530.964844 532.410156 530.226562 532.367188 529.375 C 532.367188 528.480469 532.144531 527.765625 531.738281 527.226562 C 531.316406 526.644531 530.753906 526.152344 530.039062 525.796875 C 529.324219 525.390625 528.519531 525.054688 527.621094 524.808594 C 526.726562 524.519531 525.789062 524.230469 524.847656 523.914062 C 524 523.691406 523.171875 523.445312 522.34375 523.199219 C 521.492188 522.910156 520.6875 522.574219 519.925781 522.214844 C 519.210938 521.855469 518.582031 521.453125 518.046875 520.960938 C 517.507812 520.425781 517.0625 519.796875 516.703125 519.082031 C 516.390625 518.320312 516.257812 517.425781 516.257812 516.398438 C 516.257812 515.101562 516.480469 513.980469 516.972656 513.085938 C 517.507812 512.144531 518.179688 511.339844 519.03125 510.667969 C 519.859375 510.019531 520.820312 509.550781 521.894531 509.238281 C 523.015625 508.945312 524.175781 508.789062 525.386719 508.789062 C 526.636719 508.789062 527.800781 508.945312 528.875 509.238281 C 529.996094 509.484375 531.023438 509.863281 531.917969 510.402344 C 532.8125 510.9375 533.550781 511.632812 534.15625 512.460938 C 534.804688 513.308594 535.273438 514.316406 535.589844 515.503906 L 532.277344 516.308594 C 532.03125 515.300781 531.5625 514.472656 530.84375 513.800781 C 530.171875 513.085938 529.414062 512.59375 528.519531 512.28125 C 527.621094 511.988281 526.636719 511.832031 525.5625 511.832031 C 524.847656 511.832031 524.132812 511.921875 523.417969 512.101562 C 522.746094 512.234375 522.117188 512.460938 521.535156 512.816406 C 521 513.175781 520.574219 513.667969 520.285156 514.25 C 519.96875 514.855469 519.835938 515.546875 519.835938 516.308594 C 519.835938 517.089844 520.015625 517.738281 520.375 518.277344 C 520.730469 518.769531 521.203125 519.171875 521.804688 519.53125 C 522.453125 519.886719 523.171875 520.222656 523.953125 520.515625 C 524.714844 520.761719 525.585938 521.007812 526.550781 521.230469 C 527.375 521.410156 528.25 521.65625 529.144531 521.945312 C 530.085938 522.257812 530.957031 522.574219 531.738281 522.929688 C 532.566406 523.289062 533.285156 523.78125 533.886719 524.363281 C 534.535156 524.898438 535.050781 525.59375 535.410156 526.421875 C 535.765625 527.203125 535.945312 528.167969 535.945312 529.285156 C 535.945312 530.605469 535.699219 531.769531 535.230469 532.777344 C 534.738281 533.738281 534.066406 534.542969 533.171875 535.191406 C 532.277344 535.796875 531.226562 536.265625 530.039062 536.625 C 528.832031 536.914062 527.578125 537.070312 526.28125 537.070312 Z M 526.28125 537.070312 " fill-opacity="1" fill-rule="nonzero"/></svg>